<svg version="1.1" id="Layer_1" xmlns="http://www.w3.org/2000/svg" xmlns:xlink="http://www.w3.org/1999/xlink" x="0px" y="0px"
	 width="100%" viewBox="0 0 1680 900" enable-background="new 0 0 1680 900" xml:space="preserve">


<path fill="#006D5B" opacity="1.000000" stroke="none"
	d="
M1.000000,332.464661
	C1.976841,331.531921 3.202390,331.297485 3.893842,330.561340
	C18.036720,315.504303 31.887810,300.166168 46.266785,285.339600
	C67.779381,263.157349 91.289833,243.280762 117.188782,226.347702
	C134.844971,214.803833 153.400558,205.074844 174.178391,200.426926
	C187.538300,197.438354 200.933136,196.843903 213.859390,202.490936
	C216.967270,203.848663 218.719452,202.337128 220.128662,200.296951
	C226.838745,190.582581 233.765747,180.988678 239.923218,170.928162
	C252.511398,150.360764 262.661652,128.555237 269.096008,105.305969
	C273.222015,90.397461 276.643616,75.170776 278.754944,59.862453
	C280.883057,44.432213 281.108398,28.730347 281.921783,13.134681
	C282.115814,9.414176 281.333221,5.642734 280.999939,1.447361
	C285.356903,1.000000 289.713806,1.000000 294.535339,1.000000
	C295.000031,9.331347 294.928528,17.663431 295.014282,25.993896
	C295.222473,46.225765 292.420837,66.027496 288.231445,85.830956
	C282.775055,111.623901 273.988678,136.187408 261.667480,159.246277
	C252.709579,176.010880 241.308151,191.470123 230.986908,207.505386
	C230.110733,208.866623 229.164230,210.182587 228.236725,211.539566
	C242.509460,225.163681 247.858902,242.846466 251.123169,261.738312
	C254.030228,278.563049 253.421082,295.467377 252.713562,312.257111
	C252.092194,327.002167 249.554947,341.742828 246.883255,356.305511
	C243.648102,373.939453 240.243423,391.628815 235.354843,408.852173
	C228.457336,433.153320 220.786087,457.284698 212.229431,481.050812
	C203.945480,504.059509 194.830750,526.832825 184.796829,549.131714
	C172.137177,577.265869 158.629730,605.045715 144.617401,632.534607
	C135.237656,650.935547 124.376144,668.583130 114.113716,686.531311
	C108.750343,695.911499 103.263367,705.221252 97.785126,714.535156
	C97.294373,715.369446 96.456116,715.999390 95.376839,717.155151
	C94.510117,715.700928 93.678154,714.304993 92.706192,712.674194
	C98.645218,702.660156 105.173935,691.913391 111.441101,681.016235
	C118.764023,668.283325 126.056602,655.525330 133.003143,642.585449
	C141.949448,625.920349 151.090973,609.323853 159.147339,592.226074
	C169.993744,569.207214 180.504425,545.987976 190.017685,522.394470
	C200.121765,497.335724 209.937500,472.064087 217.952438,446.286377
	C226.172607,419.848389 232.689758,392.825470 238.712601,365.782471
	C241.852417,351.684509 242.680969,337.021942 243.883804,322.558685
	C244.801743,311.521332 245.500748,300.344940 244.820999,289.321411
	C243.528458,268.360229 240.097458,247.780060 227.001266,230.287842
	C224.838562,227.399170 222.280472,224.806534 221.729294,224.333389
	C211.926682,232.948975 202.003036,241.431412 192.347855,250.209167
	C174.831482,266.133759 156.420303,280.889801 136.005127,292.927063
	C123.489288,300.306702 110.829010,307.529449 97.787544,313.911133
	C71.063515,326.988220 43.012463,336.480133 13.970942,343.001190
	C9.901190,343.915039 5.833570,344.838318 1.382480,345.878601
	C1.000000,341.643097 1.000000,337.286194 1.000000,332.464661
M107.492798,295.006592
	C145.613373,274.341675 179.404022,248.237198 207.960327,215.196732
	C198.339783,210.141785 188.017776,210.004089 178.064392,211.241180
	C159.571289,213.539658 142.604874,221.058823 126.616203,230.244476
	C101.804840,244.498856 79.534630,262.372498 58.792023,281.956482
	C42.984184,296.881348 28.241907,312.935150 13.048834,328.509430
	C12.537271,329.033813 12.277854,329.804199 11.578465,331.020782
	C45.318066,323.119781 76.830215,311.202667 107.492798,295.006592
z"/>
</svg>