<svg version="1.1" id="Layer_1" xmlns="http://www.w3.org/2000/svg" xmlns:xlink="http://www.w3.org/1999/xlink" x="0px" y="0px"
	 width="100%" viewBox="0 70 500 300" enable-background="new 0 0 500 500" xml:space="preserve">
<path fill="#FFFFFF" opacity="0" stroke="none"
	d="
M246.000000,501.000000
	C165.333359,501.000000 85.166656,500.972046 5.000206,501.096069
	C1.575966,501.101379 0.903036,500.423828 0.905301,497.000000
	C1.013779,333.000092 1.013772,169.000122 0.905334,5.000239
	C0.903070,1.576922 1.575817,0.903022 4.999884,0.905287
	C168.999771,1.013774 332.999725,1.013761 496.999634,0.905353
	C500.422668,0.903090 501.096985,1.575443 501.094727,4.999764
	C500.986206,168.999649 500.986237,332.999603 501.094604,496.999512
	C501.096893,500.422272 500.425476,501.101044 497.000275,501.096008
	C413.500305,500.973083 330.000153,501.000000 246.000000,501.000000
z"/>
<path fill="#006D5B" opacity="1.000000" stroke="none"
	d="
M148.974060,224.941116
	C144.830399,207.457962 151.163177,189.507385 164.567169,180.151718
	C177.727783,170.965942 196.171982,170.453384 209.321777,179.080826
	C219.915726,186.031403 225.983734,196.146133 226.542511,208.583771
	C227.251328,224.361832 227.911697,240.242966 226.060989,255.995621
	C223.664490,276.393982 208.903687,289.403290 188.306976,290.131378
	C179.878860,290.429352 171.738586,289.088684 163.670242,286.877655
	C161.179703,286.195099 159.831146,285.587555 160.758072,282.227875
	C163.367416,272.769958 163.126328,272.723907 172.675568,274.932220
	C180.403915,276.719452 188.175644,277.235687 195.882446,274.957184
	C205.813950,272.020966 211.964447,264.435211 212.138504,254.082794
	C212.382050,239.596619 212.721603,225.068924 211.927536,210.619034
	C210.860901,191.208755 190.586868,180.479538 174.481750,190.220535
	C163.192596,197.048630 158.548126,215.092270 164.876236,227.537796
	C170.852081,239.290512 186.008041,244.133499 198.944305,238.401703
	C201.340881,237.339844 203.694641,236.181335 206.796600,234.725555
	C206.796600,239.339737 206.740692,243.404739 206.817368,247.467224
	C206.864136,249.945160 204.925018,250.333817 203.312088,251.066391
	C181.105331,261.152222 156.895950,249.673920 148.974060,224.941116
z"/>
<path fill="#006D5B" opacity="1.000000" stroke="none"
	d="
M254.997482,248.846939
	C255.378250,251.955795 254.617615,253.049973 251.598816,253.095123
	C240.594193,253.259811 240.576645,253.392288 240.601334,242.399475
	C240.629730,229.750443 240.198746,217.075653 240.852753,204.457947
	C242.165085,179.139145 268.550171,164.787857 290.732635,177.108063
	C301.906769,183.314224 307.222717,193.351059 307.523773,205.841156
	C307.876617,220.480408 307.577057,235.134476 307.715271,249.780640
	C307.741272,252.537811 306.666260,252.998444 304.207916,253.068237
	C293.093475,253.383820 293.096008,253.460220 293.095551,242.504349
	C293.095032,230.852768 293.152313,219.200806 293.076599,207.549713
	C292.998535,195.537079 284.981384,186.846115 274.118866,186.833282
	C263.179504,186.820358 255.080490,195.475357 255.018585,207.416855
	C254.947830,221.065475 254.999237,234.714737 254.997482,248.846939
z"/>
<path fill="#006D5B" opacity="1.000000" stroke="none"
	d="
M412.292847,248.944672
	C412.744873,252.242844 411.601288,253.177567 408.744080,253.063019
	C403.421906,252.849609 398.084595,253.047058 392.754456,252.991669
	C379.470490,252.853668 370.371490,244.730286 370.138794,231.481995
	C369.708832,207.001480 369.994965,182.508789 369.885620,158.021591
	C369.874817,155.602432 370.644684,155.028748 372.992767,154.932861
	C384.197906,154.475189 384.194611,154.394333 384.194611,165.398392
	C384.194611,174.633682 384.194611,174.633560 393.288452,174.633743
	C398.452576,174.633835 403.618835,174.721115 408.779938,174.596481
	C411.191315,174.538239 412.265930,175.042343 412.373535,177.840881
	C412.774200,188.262680 412.896301,188.257782 402.528839,188.258057
	C397.531281,188.258179 392.529724,188.379074 387.537811,188.211380
	C384.864685,188.121552 384.129517,189.140854 384.150421,191.695999
	C384.254181,204.355606 384.093597,217.017883 384.254272,229.676315
	C384.338959,236.349319 387.088745,238.911896 393.829315,239.121826
	C398.156525,239.256577 402.515778,239.463272 406.814636,239.097122
	C411.087921,238.733154 413.126862,239.882736 412.327515,244.467606
	C412.102020,245.760941 412.292999,247.126907 412.292847,248.944672
z"/>
<path fill="#006D5B" opacity="1.000000" stroke="none"
	d="
M16.455414,191.495178
	C25.689564,179.189087 37.876366,174.222336 52.686859,174.569031
	C63.511383,174.822418 63.412598,174.603348 62.793709,185.325317
	C62.647007,187.866852 61.671982,188.348877 59.474041,188.328079
	C54.987888,188.285645 50.500881,188.128220 46.024727,188.861847
	C32.647396,191.054352 24.121323,201.557480 24.724047,215.256439
	C25.296915,228.276810 35.155876,238.240692 48.394367,239.038651
	C52.044674,239.258682 55.722458,239.287689 59.374771,239.121552
	C62.058338,238.999481 62.688389,240.063477 62.780804,242.595413
	C63.161049,253.013092 63.241249,252.775925 52.968258,253.065002
	C38.189964,253.480850 25.772226,248.904358 16.871902,236.709976
	C7.191463,223.446762 7.061450,206.545395 16.455414,191.495178
z"/>
<path fill="#006D5B" opacity="1.000000" stroke="none"
	d="
M480.909058,240.757324
	C472.415802,252.620941 453.574615,257.137421 438.654327,251.201340
	C418.816833,243.308929 408.761963,222.608353 414.958466,202.417114
	C421.053406,182.556747 441.173218,170.928772 462.359619,175.809875
	C455.532135,177.749115 449.850708,180.215546 444.971832,184.249023
	C437.351898,190.548553 431.536957,198.094193 429.033478,207.794205
	C425.515076,221.426590 432.331177,233.618347 445.731689,238.025101
	C446.517609,238.283539 447.269196,238.646347 448.363342,239.087524
	C458.542053,242.596527 468.462677,244.309494 478.625275,240.487762
	C479.246643,240.254089 479.925415,240.355347 480.909058,240.757324
z"/>
<path fill="#006D5B" opacity="1.000000" stroke="none"
	d="
M130.986053,241.737396
	C121.977501,253.432220 102.078583,257.395203 87.922630,250.643784
	C72.035332,243.066635 62.407291,226.731293 64.454582,210.826874
	C66.898712,191.839630 79.080612,178.747498 97.681404,175.387146
	C102.375710,174.539078 107.166260,174.371490 113.352684,176.281738
	C102.555733,179.077255 94.905388,184.314575 88.751076,191.735535
	C83.776665,197.733780 80.166077,204.427368 79.268677,212.272003
	C77.879570,224.414886 85.001465,234.096558 98.947174,238.994415
	C108.435020,242.325043 117.680054,244.068832 127.285973,241.329346
	C128.399719,241.011749 129.560623,240.993149 130.986053,241.737396
z"/>
<path fill="#006D5B" opacity="1.000000" stroke="none"
	d="
M344.964752,212.000000
	C344.964752,224.644913 344.854584,236.791504 345.038544,248.933640
	C345.087341,252.153137 344.255920,253.126053 340.941223,253.106766
	C330.438080,253.045593 330.437256,253.194702 330.437256,242.872742
	C330.437286,221.577545 330.513855,200.281784 330.360260,178.987686
	C330.335297,175.525574 331.235870,174.471344 334.775299,174.511841
	C344.962860,174.628433 344.964783,174.464401 344.964783,184.548248
	C344.964783,193.532166 344.964752,202.516083 344.964752,212.000000
z"/>
<path fill="#50C878" opacity="1.000000" stroke="none"
	d="
M116.752197,236.281754
	C123.357109,230.552780 128.438065,224.193237 128.384033,214.740891
	C128.307007,201.265533 119.560646,191.344147 106.112770,189.856659
	C105.169884,189.752365 104.092964,189.967941 103.374939,189.041061
	C109.066322,183.239777 120.186066,183.432587 126.505783,186.260193
	C137.820007,191.322464 143.042343,200.137009 142.874161,212.806976
	C142.396133,225.305527 135.414139,232.226517 124.774315,236.222412
	C122.271225,237.162460 119.669350,237.755142 116.752197,236.281754
z"/>
<path fill="#50C878" opacity="1.000000" stroke="none"
	d="
M465.652771,236.282379
	C470.653046,231.848251 475.242615,227.175720 476.900177,220.347397
	C480.377319,206.023102 471.964020,192.840393 457.380524,189.785034
	C455.611786,189.414459 453.819366,189.156830 451.126770,188.688324
	C459.133484,183.638138 466.850739,182.462631 475.020874,185.727631
	C486.018341,190.122482 491.607269,198.439789 492.124115,210.671768
	C492.632721,225.734650 479.045074,238.929749 465.652771,236.282379
z"/>
<path fill="#FFDE59" opacity="1.000000" stroke="none"
	d="
M464.961426,236.054596
	C479.792389,235.817368 488.793243,227.664948 492.078369,211.491119
	C493.768066,222.764053 489.085846,232.242035 481.561523,240.919357
	C470.378784,244.945663 459.630157,245.781631 448.915771,239.493042
	C454.162048,239.109909 459.562592,238.639694 464.961426,236.054596
z"/>
<path fill="#FFDE59" opacity="1.000000" stroke="none"
	d="
M116.064453,236.064148
	C129.936493,236.145844 139.950211,227.574493 142.626709,213.525131
	C144.185791,224.693787 139.113358,233.676849 131.616638,241.930511
	C127.008820,241.691498 123.254555,244.101273 118.911774,244.177368
	C111.999786,244.298416 105.624725,243.058502 99.467209,239.408844
	C104.976486,239.352127 110.519592,238.834747 116.064453,236.064148
z"/>
<path fill="#006D5B" opacity="1.000000" stroke="none"
	d="
M329.359802,154.728378
	C332.269806,149.061401 336.923828,147.091843 341.601501,149.236160
	C345.696503,151.113373 347.505127,156.853104 345.361145,161.167404
	C343.299866,165.315338 338.261688,167.113800 333.958923,165.009933
	C329.858734,163.005081 328.575745,159.466553 329.359802,154.728378
z"/>
<path fill="#9DD241" opacity="1.000000" stroke="none"
	d="
M148.567352,182.638092
	C144.900467,184.934128 141.480347,185.700409 138.318985,182.622421
	C137.237900,181.569839 136.162033,182.222794 135.104736,181.998352
	C131.414291,181.214905 129.396317,175.768158 131.607315,172.790634
	C132.787735,171.200958 133.876282,172.034393 134.996033,172.735443
	C137.069366,174.033524 137.772171,176.204941 138.433762,178.565018
	C140.817139,175.764786 143.643768,174.157776 147.191467,174.366272
	C152.242676,174.663132 153.101227,176.326813 150.490143,180.536240
	C150.060791,181.228424 149.405777,181.780640 148.567352,182.638092
z"/>
<path fill="#9DD241" opacity="1.000000" stroke="none"
	d="
M474.805206,177.688293
	C475.765503,177.000290 476.335663,176.363953 477.032318,175.931335
	C480.422180,173.826141 484.281830,173.321533 487.298157,175.775940
	C489.431854,177.512131 486.837463,179.783218 485.555450,181.239532
	C482.755646,184.420013 479.072845,185.485962 475.283325,183.225204
	C473.902222,182.401276 473.033905,181.633972 471.195709,181.784027
	C469.374573,181.932678 467.817413,180.365112 467.269714,178.472961
	C466.654327,176.346878 466.733643,174.173279 467.992584,172.224152
	C468.801208,170.972107 469.767731,171.765594 470.535797,172.246399
	C472.609131,173.544205 473.638000,175.633453 474.805206,177.688293
z"/>
</svg>
