<svg version="1.1" id="Layer_1" xmlns="http://www.w3.org/2000/svg" xmlns:xlink="http://www.w3.org/1999/xlink" x="0px" y="0px"
	 width="100%" viewBox="55 42 400 400" enable-background="new 0 0 500 500" xml:space="preserve">
<path fill="#FFFFFF" opacity="0" stroke="none"
	d="
M281.000000,501.000000
	C188.666687,501.000000 96.833344,500.975555 5.000191,501.095764
	C1.576136,501.100220 0.903036,500.423828 0.905301,497.000000
	C1.013778,333.000092 1.013756,169.000122 0.905337,5.000247
	C0.903074,1.576949 1.575791,0.903021 4.999876,0.905286
	C168.999756,1.013775 332.999725,1.013761 496.999634,0.905353
	C500.422668,0.903091 501.096985,1.575428 501.094727,4.999756
	C500.986206,168.999634 500.986237,332.999603 501.094604,496.999512
	C501.096893,500.422272 500.425659,501.102509 497.000244,501.096405
	C425.167023,500.968781 353.333466,501.000000 281.000000,501.000000
z"/>
<path fill="#006D5B" opacity="1.000000" stroke="none"
	d="
M393.547607,365.694427
	C394.161041,367.693573 392.674042,368.519348 391.735809,369.561310
	C363.909149,400.465088 329.775452,420.868103 288.958221,428.840088
	C241.397095,438.129181 196.572617,429.907410 155.522629,403.891113
	C107.846428,373.675354 79.766136,329.897156 72.053398,274.432434
	C62.614803,206.556519 85.727638,149.909988 137.790695,105.752975
	C165.775681,82.017632 199.070679,69.608078 235.630066,65.802521
	C256.754028,63.603672 277.499451,65.327164 298.096619,70.051468
	C300.014252,70.491310 301.907898,70.964615 303.268860,72.712753
	C267.825989,75.802422 238.247162,91.968803 211.867920,114.422447
	C179.795380,141.722153 155.949295,174.813263 143.716980,215.653412
	C126.765022,272.251099 153.690018,327.180725 201.313629,351.975128
	C209.904053,356.447571 219.214310,358.991638 228.795532,361.875916
	C237.448120,364.674164 244.415390,370.036316 252.467270,373.288391
	C298.463867,391.865692 343.479309,390.149261 387.609650,367.338898
	C389.374298,366.426758 391.036926,365.217896 393.547607,365.694427
z"/>
<path fill="#50C878" opacity="1.000000" stroke="none"
	d="
M309.098114,350.328735
	C316.295502,344.869690 324.089600,340.121368 330.884705,333.943573
	C351.658691,315.056824 364.080658,291.622650 367.875793,263.965607
	C372.872681,227.551147 362.163239,195.663666 336.991577,169.171631
	C317.425140,148.578842 293.028229,136.804596 264.542938,133.877563
	C257.751953,133.179733 250.971313,133.131790 244.182281,133.483765
	C243.673935,130.827148 245.770004,130.425049 246.963043,129.611725
	C263.221832,118.527802 281.180054,111.897789 300.746582,109.995827
	C347.137939,105.486366 383.934540,123.332703 412.252777,159.334778
	C426.193329,177.057892 432.070221,198.244949 434.873718,220.778778
	C436.713928,232.134262 436.016327,243.002899 433.664490,253.734100
	C422.282410,305.669006 384.153351,341.693359 331.668701,350.276825
	C324.256683,351.488983 316.842499,352.009064 309.098114,350.328735
z"/>
<path fill="#FEDE5B" opacity="1.000000" stroke="none"
	d="
M308.456787,350.087158
	C369.664368,353.140106 423.494629,309.292053 433.132904,248.902496
	C434.554199,239.997299 435.136169,231.087585 434.889465,221.652527
	C436.880676,224.842026 436.532013,228.956802 436.793427,232.795319
	C438.704590,260.855927 435.406036,288.219452 424.965729,314.528351
	C418.237915,331.482025 409.190369,347.107330 398.238434,361.661133
	C397.136292,363.125732 396.134918,364.665588 394.117188,365.639343
	C389.790192,366.856415 386.518372,369.548340 382.825531,371.364227
	C357.030090,384.048340 329.721375,389.041870 301.232056,386.791260
	C275.393890,384.750031 251.359894,376.703613 229.324219,362.286133
	C235.059189,362.666656 240.950577,363.729828 246.870102,363.920685
	C268.443451,364.616241 288.949036,360.265106 308.456787,350.087158
z"/>
<path fill="#9DD241" opacity="1.000000" stroke="none"
	d="
M390.730774,85.424126
	C379.231262,91.150986 368.059326,97.053360 356.265747,101.655754
	C350.698456,103.828369 350.591583,103.757172 350.983978,97.602242
	C352.148804,79.331421 366.197052,66.037697 386.506897,64.178993
	C396.129700,63.298340 405.356476,65.130562 414.302521,68.723022
	C416.537079,69.620354 417.582336,70.704338 416.907623,73.157661
	C412.241791,90.122017 399.278717,106.540321 381.441010,110.242104
	C371.519897,112.300980 362.362610,110.283813 352.845886,105.333740
	C366.815826,100.798233 379.485474,95.106529 391.078033,86.584991
	C391.409851,85.429001 392.141235,85.126625 393.035919,84.622803
	C393.542572,84.387611 393.877808,84.033028 393.549774,83.973778
	C392.921448,83.860291 393.559784,83.649086 393.342987,84.433617
	C392.402283,84.877327 391.683746,85.139374 390.730774,85.424126
z"/>
<path fill="#9DD241" opacity="1.000000" stroke="none"
	d="
M336.632324,76.034439
	C338.867615,83.643913 341.039886,90.978172 343.379822,98.258537
	C344.395996,101.420212 343.688568,101.923347 340.445251,101.305756
	C324.932739,98.351852 316.176727,84.417503 319.322205,67.186218
	C320.253296,62.085400 321.932617,57.221825 324.352753,52.610458
	C325.316986,50.773106 326.158508,49.759304 328.546844,50.845989
	C340.448273,56.261127 349.037506,64.461304 351.490295,77.802841
	C352.952148,85.754387 350.447235,92.806282 345.651886,100.361336
	C343.572815,91.389374 341.682404,83.415092 337.824951,75.739914
	C336.851715,75.685120 336.613251,75.247375 336.540375,74.370331
	C336.530273,74.153061 336.280518,73.815430 336.423157,73.993225
	C336.435577,74.700157 336.520569,75.219475 336.632324,76.034439
z"/>

</svg>
